:SAMPLES-PER-SECOND 30
:FULLY-SPECIFIED
:DEGREES
361
root  -3.98969 39.2927 -28.9883 9.23193 -88.096 -7.19189
RightUpLeg  -20.9918 -24.1459 -7.40703
RightLeg  34.6594 -16.1183 -11.7865
RightFoot  -5.76847 -0.645255 12.215
RightToes  -1.33073e-015 0 -3.6325e-017
Spine  20.9956 0.2968 1.10026
Spine1  -18.8306 0.569231 0.244559
HEad  -3.87402 13.5196 -5.91543
LeftShoulder1  1.34518 -1.83781 -18.6517
LeftArm  -49.4786 8.74265 -27.2696
LeftForeArm  49.1667 -77.6981 -100.866
LeftHand  -0.661937 2.91189 30.6334
RightShoulder  0.895954 0.368192 16.561
RightArm  -59.5722 -17.9327 25.953
RightForeArm  38.212 77.954 87.2395
RightHand  -2.3972 4.43956 -28.0597
LeftUpLeg  -12.4852 22.623 6.36586
LeftLeg  21.3531 13.11 5.71054
LeftFoot  -7.80273 0.496705 -14.578
LeftToes  -4.0021e-011 8.38769e-011 -3.99229e-011
362
root  -3.7472 38.6434 -28.6766 -31.2961 -89.037 32.896
RightUpLeg  -25.2447 -24.4271 -4.95845
RightLeg  43.9997 -7.78341 -8.25236
RightFoot  -7.9864 -0.512758 15.36
RightToes  -1.33073e-015 0 -3.6325e-017
Spine  22.6952 0.834084 -0.528758
Spine1  -18.7783 0.895619 -0.317465
HEad  -5.36295 13.5304 -4.73908
LeftShoulder1  0.842556 -0.646596 -13.0576
LeftArm  -50.3629 7.87243 -29.2784
LeftForeArm  50.3423 -77.4982 -104.056
LeftHand  -0.56839 3.28637 31.0331
RightShoulder  0.636308 -0.398634 13.564
RightArm  -62.2642 -16.8973 27.17
RightForeArm  45.5783 77.9558 94.3478
RightHand  -2.48954 5.76634 -25.7688
LeftUpLeg  -15.4835 25.5486 5.1059
LeftLeg  28.2479 10.3898 6.33075
LeftFoot  -11.7265 0.0209569 -15.0843
LeftToes  -4.0021e-011 8.38769e-011 -3.99229e-011
363
root  -3.39225 37.4493 -28.3947 -77.3616 -88.2487 77.6023
RightUpLeg  -29.2314 -25.3932 -3.35818
RightLeg  54.9015 -3.76191 -6.27581
RightFoot  -8.96748 -0.363662 14.5178
RightToes  -1.33073e-015 0 -3.6325e-017
Spine  25.516 1.02723 -2.54849
Spine1  -18.4979 0.704936 -0.221519
HEad  -7.95915 13.3107 -4.06257
LeftShoulder1  0.23685 1.84921 -6.50078
LeftArm  -52.6993 2.83488 -26.5253
LeftForeArm  48.8227 -77.4945 -103.694
LeftHand  -0.449605 3.74234 31.3752
RightShoulder  0.272911 -1.83332 8.94348
RightArm  -65.303 -12.8501 24.6654
RightForeArm  42.6677 77.9763 91.3719
RightHand  -2.49127 6.28622 -24.6432
LeftUpLeg  -19.847 27.8341 4.19618
LeftLeg  39.0713 6.78576 6.2509
LeftFoot  -15.8759 -0.478563 -14.4505
LeftToes  -4.0021e-011 8.38769e-011 -3.99229e-011
364
root  -2.99035 35.8007 -28.0747 -68.8928 -87.0577 67.2518
RightUpLeg  -31.6243 -26.7426 -2.54789
RightLeg  63.6699 -3.30895 -7.91651
RightFoot  -12.2404 -0.014016 11.105
RightToes  -1.33073e-015 0 -3.6325e-017
Spine  29.1632 0.866269 -3.62327
Spine1  -19.1723 0.197417 -0.320335
HEad  -9.98217 12.4023 -3.56706
LeftShoulder1  -0.0421958 4.05387 1.14178
LeftArm  -57.0559 -3.58008 -20.1347
LeftForeArm  31.8632 -77.7755 -87.7489
LeftHand  -0.44367 3.75832 31.2733
RightShoulder  0.0123063 -3.39869 2.89662
RightArm  -68.6031 -8.31088 18.5892
RightForeArm  19.821 77.3156 72.898
RightHand  -2.3824 4.95817 -26.9341
LeftUpLeg  -24.623 28.7539 3.40649
LeftLeg  51.0381 4.06144 5.88728
LeftFoot  -19.6935 -0.815788 -12.7826
LeftToes  -4.0021e-011 8.38769e-011 -3.99229e-011
365
root  -2.5476 33.9523 -27.6763 -66.1216 -86.255 63.9907
RightUpLeg  -34.3312 -26.8571 -1.93797
RightLeg  69.5294 -3.81184 -12.0009
RightFoot  -19.6645 0.445824 7.88989
RightToes  -1.33073e-015 0 -3.6325e-017
Spine  32.3702 0.688803 -3.64428
Spine1  -20.5868 -0.118294 -0.821545
HEad  -12.2857 11.4454 -3.49177
LeftShoulder1  0.013802 5.61773 10.3904
LeftArm  -63.0823 -7.9456 -13.5254
LeftForeArm  1.5122 -75.6841 -58.7869
LeftHand  -0.417638 3.8584 31.389
RightShoulder  -0.0700616 -4.9179 -3.85669
RightArm  -72.3387 -4.94645 10.9837
RightForeArm  -13.5118 73.5936 48.631
RightHand  -2.00308 1.29941 -33.7558
LeftUpLeg  -30.752 29.458 1.62059
LeftLeg  61.7949 2.76246 6.28314
LeftFoot  -23.8381 -0.986717 -10.3236
LeftToes  -4.0021e-011 8.38769e-011 -3.99229e-011
366
root  -2.09817 32.2371 -27.2049 -71.7836 -85.9995 70.5988
RightUpLeg  -38.5257 -25.5057 -1.69583
RightLeg  74.4599 -3.49112 -15.1383
RightFoot  -27.5854 0.879704 7.37307
RightToes  -1.33073e-015 0 -3.6325e-017
Spine  34.4068 0.799997 -3.50911
Spine1  -20.578 -0.0198116 -1.03404
HEad  -17.7808 10.9498 -5.02162
LeftShoulder1  0.274123 7.30265 17.9059
LeftArm  -70.0131 -9.07544 -7.22467
LeftForeArm  -23.0163 -69.5765 -36.0502
LeftHand  -0.230505 4.55907 32.4849
RightShoulder  -0.00909419 -6.33065 -9.24535
RightArm  -76.6987 -2.81773 2.79987
RightForeArm  -35.9216 65.513 29.3484
RightHand  -1.93888 1.57089 -31.7769
LeftUpLeg  -37.5061 30.5436 -1.095
LeftLeg  70.3305 2.11964 7.53989
LeftFoot  -28.0357 -1.04591 -8.23953
LeftToes  -4.0021e-011 8.38769e-011 -3.99229e-011
367
root  -1.76715 31.0829 -26.6911 -79.5331 -86.1123 78.4321
RightUpLeg  -41.5192 -24.2886 -2.49151
RightLeg  78.8498 -2.29256 -15.4334
RightFoot  -31.213 1.33934 8.87187
RightToes  -1.33073e-015 0 -3.6325e-017
Spine  35.5478 0.906492 -3.0454
Spine1  -18.1485 0.25742 -1.24088
HEad  -25.1478 10.5425 -7.44182
LeftShoulder1  0.587803 9.06858 21.7307
LeftArm  -76.1776 -7.57112 -3.371
LeftForeArm  -33.9332 -63.8218 -26.4871
LeftHand  0.067857 5.58719 34.1833
RightShoulder  0.0841809 -7.14953 -12.2605
RightArm  -80.5465 -3.11823 -3.43035
RightForeArm  -46.3748 57.4713 20.5593
RightHand  -1.79399 0.952958 -32.2674
LeftUpLeg  -41.2289 31.2464 -2.81101
LeftLeg  75.7895 1.55052 8.39869
LeftFoot  -30.9288 -1.12772 -7.58906
LeftToes  -4.0021e-011 8.38769e-011 -3.99229e-011
368
root  -1.70358 30.8333 -26.1851 -80.8342 -86.5222 78.1857
RightUpLeg  -40.609 -24.0966 -3.97823
RightLeg  80.3547 -1.70678 -14.4457
RightFoot  -30.4791 1.49961 10.1125
RightToes  -1.33073e-015 0 -3.6325e-017
Spine  35.8068 0.590467 -1.64982
Spine1  -15.2124 0.419559 -2.2238
HEad  -28.1388 10.2698 -8.29394
LeftShoulder1  0.730142 9.70412 23.0717
LeftArm  -78.9556 -5.90901 -6.00914
LeftForeArm  -32.9646 -64.6207 -27.8885
LeftHand  0.242256 6.13961 35.0545
RightShoulder  0.0974495 -6.83626 -12.8455
RightArm  -81.1961 -5.65723 -3.56967
RightForeArm  -46.3445 57.2515 20.664
RightHand  -1.73324 0.304323 -34.5281
LeftUpLeg  -40.0805 31.0172 -2.50246
LeftLeg  77.2231 1.3339 8.43731
LeftFoot  -32.1323 -1.22551 -7.72841
LeftToes  -4.0021e-011 8.38769e-011 -3.99229e-011
369
root  -1.95765 31.5423 -25.7141 -71.5599 -86.9449 67.6713
RightUpLeg  -36.6458 -24.3939 -5.42931
RightLeg  77.0504 -2.46505 -13.8105
RightFoot  -28.2461 1.3817 10.5642
RightToes  -1.33073e-015 0 -3.6325e-017
Spine  34.6841 0.143453 -0.0781264
Spine1  -14.433 0.454556 -3.1233
HEad  -23.4961 10.4793 -6.98631
LeftShoulder1  0.55321 8.74567 21.6084
LeftArm  -75.6629 -6.32572 -14.2652
LeftForeArm  -18.1834 -71.8189 -42.4886
LeftHand  0.198577 6.01007 34.4982
RightShoulder  0.0211111 -5.84159 -10.4882
RightArm  -77.6225 -7.43646 2.53299
RightForeArm  -34.7803 65.3929 29.4887
RightHand  -1.87097 0.863191 -34.0127
LeftUpLeg  -36.448 30.3051 -1.60873
LeftLeg  74.5377 1.72262 8.29858
LeftFoot  -31.334 -1.15106 -7.55688
LeftToes  -4.0021e-011 8.38769e-011 -3.99229e-011
370
root  -2.44971 32.9991 -25.2899 -55.7898 -86.8118 52.1385
RightUpLeg  -31.592 -24.9985 -6.73729
RightLeg  69.5809 -4.04074 -12.7202
RightFoot  -25.5634 1.1728 10.7717
RightToes  -1.33073e-015 0 -3.6325e-017
Spine  32.0342 -0.0220524 0.338295
Spine1  -15.8339 0.298647 -2.62458
HEad  -15.0172 10.7712 -5.20559
LeftShoulder1  0.163473 6.75747 15.0576
LeftArm  -65.9388 -6.93303 -22.4593
LeftForeArm  16.9487 -77.427 -76.0403
LeftHand  0.0572924 5.55809 33.3585
RightShoulder  -0.0454557 -4.71969 -5.02484
RightArm  -70.6791 -7.82684 11.0219
RightForeArm  -10.3629 73.9082 48.8385
RightHand  -2.00621 1.68803 -32.306
LeftUpLeg  -32.8215 30.238 -1.12095
LeftLeg  69.1534 1.83895 6.32942
LeftFoot  -26.55 -0.900492 -7.94776
LeftToes  -4.0021e-011 8.38769e-011 -3.99229e-011
371
root  -3.01204 34.8594 -24.8798 -44.5352 -86.2162 41.4437
RightUpLeg  -25.6966 -26.3354 -8.266
RightLeg  59.66 -5.32891 -10.2775
RightFoot  -21.1415 0.793179 10.8828
RightToes  -1.33073e-015 0 -3.6325e-017
Spine  28.8045 -0.113749 -0.117551
Spine1  -17.3139 -0.036387 -1.48498
HEad  -7.88058 11.0577 -4.18311
LeftShoulder1  -0.0146607 4.06472 3.44784
LeftArm  -55.1581 -4.13799 -26.2109
LeftForeArm  48.8097 -77.4785 -104.636
LeftHand  -0.133734 4.90475 32.7079
RightShoulder  0.0542274 -3.06462 2.63385
RightArm  -63.3015 -9.8157 18.2461
RightForeArm  14.5365 77.0185 68.3002
RightHand  -2.18146 2.32589 -32.2282
LeftUpLeg  -29.0993 31.568 -0.0304858
LeftLeg  62.9412 -0.319197 0.113807
LeftFoot  -17.0488 -0.421067 -11.5565
LeftToes  -4.0021e-011 8.38769e-011 -3.99229e-011
372
root  -3.54458 36.7639 -24.4207 -39.9331 -85.9753 36.9363
RightUpLeg  -18.8786 -28.117 -9.79834
RightLeg  48.1777 -5.87045 -7.32875
RightFoot  -14.9926 0.243727 10.7957
RightToes  -1.33073e-015 0 -3.6325e-017
Spine  25.767 -0.232415 0.164811
Spine1  -17.6621 -0.156795 -1.35045
HEad  -3.09278 11.2353 -3.27342
LeftShoulder1  0.42034 0.919572 -8.86436
LeftArm  -48.9415 1.79471 -26.0002
LeftForeArm  57.023 -77.0414 -110.796
LeftHand  -0.265723 4.4411 32.5084
RightShoulder  0.445 -1.01201 10.7603
RightArm  -59.1916 -14.5273 22.8907
RightForeArm  21.3659 77.3244 71.9097
RightHand  -2.31229 2.82736 -32.1192
LeftUpLeg  -24.6401 33.565 2.46856
LeftLeg  56.4764 -4.56567 -6.82188
LeftFoot  -7.5532 0.632847 -18.2616
LeftToes  -4.0021e-011 8.38769e-011 -3.99229e-011
373
root  -4.02945 38.3888 -23.9303 -42.8838 -86.2239 40.385
RightUpLeg  -12.6087 -28.9679 -10.8573
RightLeg  36.0072 -6.40729 -5.20854
RightFoot  -8.82853 -0.306784 11.0571
RightToes  -1.33073e-015 0 -3.6325e-017
Spine  22.4813 0.107941 0.847123
Spine1  -17.0515 0.313522 -2.22068
HEad  0.314364 10.7659 -2.18172
LeftShoulder1  1.15668 -1.58177 -16.3007
LeftArm  -47.0041 7.40676 -25.8412
LeftForeArm  49.8681 -77.4277 -104.688
LeftHand  -0.311952 4.25886 31.8763
RightShoulder  0.860829 0.254601 16.5037
RightArm  -58.5982 -19.4793 25.8449
RightForeArm  20.1231 77.1838 69.7119
RightHand  -2.56487 4.45039 -29.9196
LeftUpLeg  -20.1035 34.3085 5.03521
LeftLeg  48.676 -6.26221 -7.29167
LeftFoot  -4.29658 1.39335 -22.1012
LeftToes  -4.0021e-011 8.38769e-011 -3.99229e-011
374
root  -4.37689 39.5478 -23.4708 -53.9827 -86.3058 52.7629
RightUpLeg  -8.43639 -27.8429 -11.4625
RightLeg  25.1988 -8.0004 -4.27921
RightFoot  -3.41127 -0.861325 12.0234
RightToes  -1.33073e-015 0 -3.6325e-017
Spine  18.8069 0.928437 0.414875
Spine1  -15.9173 1.07844 -2.8264
HEad  2.01819 9.81998 -1.8156
LeftShoulder1  1.39692 -2.36596 -17.166
LeftArm  -46.6857 9.74255 -27.174
LeftForeArm  40.8578 -77.7015 -97.3944
LeftHand  -0.363426 4.03627 30.9394
RightShoulder  0.892811 0.227472 17.4021
RightArm  -59.5122 -21.8946 28.0386
RightForeArm  21.8433 77.3435 72.2251
RightHand  -2.68421 5.73415 -27.7513
LeftUpLeg  -16.387 32.2017 6.28407
LeftLeg  38.9289 0.422604 0.486082
LeftFoot  -3.90027 1.2453 -18.8998
LeftToes  -4.0021e-011 8.38769e-011 -3.99229e-011
